<svg width="33" height="32" viewBox="0 0 33 32" fill="none" xmlns="http://www.w3.org/2000/svg">
<path d="M16.72 9.87512C17.55 9.87512 18.6 9.29512 19.22 8.52512C19.78 7.82512 20.19 6.84512 20.19 5.86512C20.19 5.73512 20.18 5.59512 20.15 5.49512C19.22 5.53512 18.11 6.13512 17.44 6.94512C16.91 7.56512 16.43 8.52512 16.43 9.51512C16.43 9.65512 16.45 9.80512 16.47 9.85512C16.53 9.86512 16.62 9.87512 16.72 9.87512ZM13.79 24.4951C14.93 24.4951 15.43 23.7051 16.85 23.7051C18.27 23.7051 18.61 24.4651 19.87 24.4651C21.13 24.4651 21.94 23.2851 22.73 22.1251C23.61 20.7951 23.97 19.4951 24 19.4351C23.92 19.4151 21.54 18.4051 21.54 15.5951C21.54 13.1551 23.42 12.0551 23.52 11.9751C22.28 10.1351 20.39 10.0951 19.88 10.0951C18.49 10.0951 17.35 10.9651 16.63 10.9651C15.86 10.9651 14.84 10.1451 13.63 10.1451C11.33 10.1451 9 12.1051 9 15.7951C9 18.0851 9.87 20.5151 10.93 22.0851C11.84 23.4151 12.64 24.5051 13.79 24.5051V24.4951Z" fill="white"/>
</svg>
