<svg width="32" height="32" viewBox="0 0 32 32" fill="none" xmlns="http://www.w3.org/2000/svg">
<path fill-rule="evenodd" clip-rule="evenodd" d="M24.64 16.2044C24.64 15.5663 24.5827 14.9526 24.4764 14.3635H16V17.8449H20.8436C20.635 18.9699 20.0009 19.9231 19.0477 20.5613V22.8194H21.9564C23.6582 21.2526 24.64 18.9453 24.64 16.2044Z" fill="#4285F4"/>
<path fill-rule="evenodd" clip-rule="evenodd" d="M16 25C18.43 25 20.4673 24.1941 21.9564 22.8195L19.0477 20.5613C18.2418 21.1013 17.2109 21.4204 16 21.4204C13.6559 21.4204 11.6718 19.8372 10.9641 17.71H7.95728V20.0418C9.43818 22.9831 12.4818 25 16 25Z" fill="#34A853"/>
<path fill-rule="evenodd" clip-rule="evenodd" d="M10.9641 17.7101C10.7841 17.1701 10.6818 16.5933 10.6818 16.0001C10.6818 15.4069 10.7841 14.8301 10.9641 14.2901V11.9583H7.95727C7.34773 13.1733 7 14.5478 7 16.0001C7 17.4523 7.34773 18.8269 7.95727 20.0419L10.9641 17.7101Z" fill="#FBBC05"/>
<path fill-rule="evenodd" clip-rule="evenodd" d="M16 10.5795C17.3214 10.5795 18.5077 11.0336 19.4405 11.9255L22.0218 9.34409C20.4632 7.89182 18.4259 7 16 7C12.4818 7 9.43818 9.01682 7.95728 11.9582L10.9641 14.29C11.6718 12.1627 13.6559 10.5795 16 10.5795Z" fill="#EA4335"/>
</svg>
