<svg width="24" height="24" viewBox="0 0 24 24" fill="none" xmlns="http://www.w3.org/2000/svg">
<path d="M20.5899 15.7193L18.7523 12.4799V9.10714C18.7523 5.73966 15.8829 3 12.356 3C8.82906 3 5.95969 5.73966 5.95969 9.10714V12.4799L4.12194 15.7192C4.0386 15.8661 3.99665 16.0312 4.00021 16.1982C4.00377 16.3652 4.05271 16.5285 4.14224 16.672C4.23177 16.8155 4.35882 16.9344 4.51093 17.0169C4.66304 17.0995 4.835 17.1429 5.00997 17.1429H8.66826C8.65825 17.2488 8.65282 17.3558 8.65282 17.4643C8.65282 18.402 9.04297 19.3013 9.73744 19.9644C10.4319 20.6275 11.3738 21 12.3559 21C13.3381 21 14.28 20.6275 14.9744 19.9644C15.6689 19.3013 16.059 18.402 16.059 17.4643C16.059 17.3558 16.0536 17.2488 16.0436 17.1429H19.7019C19.8768 17.1428 20.0488 17.0994 20.2009 17.0169C20.353 16.9343 20.48 16.8155 20.5695 16.672C20.659 16.5284 20.708 16.3652 20.7115 16.1982C20.7151 16.0312 20.6733 15.8662 20.5899 15.7193ZM14.7125 17.4643C14.7128 17.7735 14.6463 18.0794 14.5172 18.363C14.3881 18.6466 14.1992 18.9017 13.9622 19.1125C13.7253 19.3232 13.4453 19.4851 13.1399 19.588C12.8345 19.6908 12.5102 19.7325 12.1872 19.7103C11.8642 19.6882 11.5494 19.6027 11.2626 19.4593C10.9757 19.3158 10.7229 19.1174 10.5199 18.8765C10.3169 18.6356 10.1681 18.3573 10.0827 18.059C9.9974 17.7607 9.97737 17.4489 10.0239 17.1429H14.688C14.7042 17.2493 14.7124 17.3567 14.7125 17.4643ZM5.57515 15.8571L7.30628 12.8058V9.10714C7.30628 7.82842 7.8383 6.60207 8.7853 5.69788C9.7323 4.79368 11.0167 4.28571 12.356 4.28571C13.6952 4.28571 14.9797 4.79368 15.9267 5.69788C16.8737 6.60207 17.4057 7.82842 17.4057 9.10714V12.8058L19.1367 15.8571H5.57515Z" fill="#1C1B1F"/>
</svg>
