<svg width="32" height="32" viewBox="0 0 32 32" fill="none" xmlns="http://www.w3.org/2000/svg">
<path d="M21.5553 23.3333H21.1111C20.4972 23.3333 19.9999 23.6317 19.9999 24C19.9999 24.3683 20.4972 24.6666 21.1111 24.6666H21.5553C22.1693 24.6666 22.6666 24.3683 22.6666 24C22.6666 23.6317 22.1693 23.3333 21.5553 23.3333Z" fill="#0000CD"/>
<path d="M30.5391 12.1159C30.3485 11.6117 29.95 11.2064 29.4458 11.0041L26.9523 10.0021C26.6437 9.87792 26.2902 10.009 26.1396 10.3029L23.245 15.756L20.8235 14.7021C20.4994 14.5611 20.1213 14.7066 19.9788 15.0272L18.1289 19.1869L18.1324 19.1884C17.8118 19.1884 17.3742 19.1884 16.7731 19.1884C16.5651 18.6313 16.4955 18.1449 16.4955 17.6264C18.2444 16.663 19.4307 14.8154 19.4307 12.6982V8.96899C19.4307 5.8617 16.8756 3.33331 13.7344 3.33331C10.5933 3.33331 8.0377 5.8617 8.0377 8.96949V12.6987C8.0377 14.8159 9.22396 16.6635 10.9728 17.6269C10.9728 18.1444 10.9038 18.6308 10.6953 19.1889C8.30076 19.1889 8.4898 19.1854 8.40678 19.1968C4.47143 19.3735 1.33325 22.5812 1.33325 26.5252V27.9215C1.33325 28.3332 1.67032 28.6666 2.08642 28.6666H25.3825C25.7985 28.6666 26.1356 28.3332 26.1356 27.9215V26.5252C26.1356 25.9646 26.0721 25.4188 25.9516 24.8944C26.7633 23.0696 28.2221 19.7886 28.6592 18.8059C28.8017 18.4853 28.6547 18.1113 28.3306 17.9702L24.4248 16.2696L25.8986 13.5463L27.8295 14.5141C29.4133 15.3078 31.1582 13.7536 30.5391 12.1159ZM16.9381 20.6787H17.9108L16.8496 23.8291L14.9972 23.4219L16.9381 20.6787ZM17.5723 7.30698H9.89711C11.3639 4.00524 16.1024 3.99782 17.5723 7.30698ZM17.6848 8.7973C17.3762 9.75225 16.4635 10.486 15.3413 10.486H12.1281C11.0539 10.486 10.1082 9.78243 9.78608 8.7973H17.6848ZM9.54453 12.6987V11.0293C10.2632 11.6399 11.1794 11.9763 12.1281 11.9763H15.3413C16.3 11.9763 17.2062 11.6414 17.9248 11.0288V12.6987C17.9248 14.9847 16.0449 16.8446 13.7344 16.8446C11.4239 16.8446 9.54453 14.9847 9.54453 12.6987ZM10.5312 20.6787L12.4722 23.4219L10.6198 23.8291L9.55853 20.6787H10.5312ZM12.9818 27.1763H2.83958V26.5252C2.83958 23.5431 5.06006 21.0939 7.98619 20.7267L9.405 24.9379C9.52703 25.3001 9.90611 25.5123 10.2827 25.4297L12.9813 24.8365L12.9818 27.1763ZM11.9516 20.0875C12.2301 19.47 12.3991 18.8346 12.4572 18.1914C13.2853 18.3799 14.1645 18.3844 15.0127 18.1914C15.0707 18.8351 15.2398 19.4709 15.5183 20.0875L13.7349 22.6079L11.9516 20.0875ZM24.6298 27.1763H14.4881V24.836C17.4307 25.4832 17.2337 25.447 17.3502 25.447C17.6678 25.447 17.9599 25.2471 18.0644 24.9374L19.4832 20.7262C22.4103 21.0944 24.6298 23.5431 24.6298 26.5247V27.1763ZM25.3179 23.1715C24.8293 22.2319 24.1422 21.41 23.31 20.7609L23.4095 20.5372L25.9901 21.6609L25.3179 23.1715ZM27.2289 18.8752L26.5062 20.5001L23.339 19.1211C23.0149 18.9801 22.6369 19.1256 22.4943 19.4462L22.2228 20.0568C21.3996 19.6199 20.4834 19.3324 19.5097 19.2305L20.894 16.1172L27.2289 18.8752ZM29.3093 13.0916C29.1423 13.4172 28.7387 13.5483 28.4096 13.383L26.4917 12.4216L27.0168 11.3964L28.9642 12.1787C29.3258 12.3242 29.4873 12.7443 29.3093 13.0916Z" fill="#0000CD"/>
</svg>
