<svg width="24" height="24" viewBox="0 0 24 24" fill="none" xmlns="http://www.w3.org/2000/svg">
<path d="M16.6 3C16.105 3 15.7 3.405 15.7 3.9V4.8H8.5V3.9C8.5 3.405 8.095 3 7.6 3C7.105 3 6.7 3.405 6.7 3.9V4.8H5.8C4.801 4.8 4.009 5.61 4.009 6.6L4 19.2C4 19.6774 4.18964 20.1352 4.52721 20.4728C4.86477 20.8104 5.32261 21 5.8 21H18.4C19.39 21 20.2 20.19 20.2 19.2V6.6C20.2 5.61 19.39 4.8 18.4 4.8H17.5V3.9C17.5 3.405 17.095 3 16.6 3ZM18.4 19.2H5.8V10.2H18.4V19.2ZM11.2 12.9C11.2 12.405 11.605 12 12.1 12C12.595 12 13 12.405 13 12.9C13 13.395 12.595 13.8 12.1 13.8C11.605 13.8 11.2 13.395 11.2 12.9ZM7.6 12.9C7.6 12.405 8.005 12 8.5 12C8.995 12 9.4 12.405 9.4 12.9C9.4 13.395 8.995 13.8 8.5 13.8C8.005 13.8 7.6 13.395 7.6 12.9ZM14.8 12.9C14.8 12.405 15.205 12 15.7 12C16.195 12 16.6 12.405 16.6 12.9C16.6 13.395 16.195 13.8 15.7 13.8C15.205 13.8 14.8 13.395 14.8 12.9ZM11.2 16.5C11.2 16.005 11.605 15.6 12.1 15.6C12.595 15.6 13 16.005 13 16.5C13 16.995 12.595 17.4 12.1 17.4C11.605 17.4 11.2 16.995 11.2 16.5ZM7.6 16.5C7.6 16.005 8.005 15.6 8.5 15.6C8.995 15.6 9.4 16.005 9.4 16.5C9.4 16.995 8.995 17.4 8.5 17.4C8.005 17.4 7.6 16.995 7.6 16.5ZM14.8 16.5C14.8 16.005 15.205 15.6 15.7 15.6C16.195 15.6 16.6 16.005 16.6 16.5C16.6 16.995 16.195 17.4 15.7 17.4C15.205 17.4 14.8 16.995 14.8 16.5Z" fill="#333333"/>
</svg>
