<svg width="18" height="18" viewBox="0 0 18 18" fill="none" xmlns="http://www.w3.org/2000/svg">
<mask id="path-1-inside-1_375_2115" fill="white">
<path d="M13.7596 14.25L8.50956 9.00001L13.7596 3.75001L14.2499 4.24039L9.49033 9.00001L14.2499 13.7596L13.7596 14.25Z"/>
<path d="M4.24045 14.25L9.49033 9.00001L4.24045 3.75L3.75006 4.24038L8.50956 9.00001L3.75006 13.7596L4.24045 14.25Z"/>
</mask>
<path d="M13.7596 14.25L8.50956 9.00001L13.7596 3.75001L14.2499 4.24039L9.49033 9.00001L14.2499 13.7596L13.7596 14.25Z" fill="#585858"/>
<path d="M4.24045 14.25L9.49033 9.00001L4.24045 3.75L3.75006 4.24038L8.50956 9.00001L3.75006 13.7596L4.24045 14.25Z" fill="#585858"/>
<path d="M13.7596 14.25L13.0524 14.9571L13.7596 15.6642L14.4667 14.9571L13.7596 14.25ZM13.7596 3.75001L14.4667 3.0429L13.7596 2.3358L13.0524 3.0429L13.7596 3.75001ZM14.2499 4.24039L14.957 4.9475L15.6642 4.24039L14.957 3.53329L14.2499 4.24039ZM14.2499 13.7596L14.957 14.4667L15.6642 13.7596L14.957 13.0525L14.2499 13.7596ZM4.24045 14.25L3.53334 14.9571L4.24045 15.6642L4.94756 14.9571L4.24045 14.25ZM4.24045 3.75L4.94756 3.0429L4.24045 2.33578L3.53334 3.04289L4.24045 3.75ZM3.75006 4.24038L3.04295 3.53328L2.33586 4.24038L3.04295 4.94748L3.75006 4.24038ZM3.75006 13.7596L3.04295 13.0525L2.33586 13.7596L3.04295 14.4667L3.75006 13.7596ZM14.4667 13.5429L9.21666 8.2929L7.80245 9.70711L13.0524 14.9571L14.4667 13.5429ZM9.21666 9.70711L14.4667 4.45712L13.0524 3.0429L7.80245 8.2929L9.21666 9.70711ZM13.0524 4.45712L13.5428 4.9475L14.957 3.53329L14.4667 3.0429L13.0524 4.45712ZM13.5428 3.53329L8.78322 8.2929L10.1974 9.70711L14.957 4.9475L13.5428 3.53329ZM8.78322 9.70711L13.5428 14.4667L14.957 13.0525L10.1974 8.2929L8.78322 9.70711ZM13.5428 13.0525L13.0524 13.5429L14.4667 14.9571L14.957 14.4667L13.5428 13.0525ZM4.94756 14.9571L10.1974 9.7071L8.78321 8.29291L3.53333 13.5429L4.94756 14.9571ZM10.1974 8.29291L4.94756 3.0429L3.53333 4.4571L8.78321 9.7071L10.1974 8.29291ZM3.53334 3.04289L3.04295 3.53328L4.45717 4.94749L4.94755 4.45711L3.53334 3.04289ZM3.04295 4.94748L7.80244 9.7071L9.21667 8.29291L4.45718 3.53329L3.04295 4.94748ZM7.80244 8.29291L3.04295 13.0525L4.45718 14.4667L9.21667 9.7071L7.80244 8.29291ZM3.04295 14.4667L3.53334 14.9571L4.94755 13.5429L4.45717 13.0525L3.04295 14.4667Z" fill="white" mask="url(#path-1-inside-1_375_2115)"/>
</svg>
