<svg width="24" height="24" viewBox="0 0 24 24" fill="none" xmlns="http://www.w3.org/2000/svg">
<path d="M3.01943 9.86824C2.34761 9.48435 2.34761 8.51565 3.01943 8.13176L11.5039 3.28351C11.8113 3.10783 12.1887 3.10783 12.4961 3.28351L20.9806 8.13176C21.6524 8.51565 21.6524 9.48435 20.9806 9.86824L12.4961 14.7165C12.1887 14.8922 11.8113 14.8922 11.5039 14.7165L3.01943 9.86824Z" stroke="#585858" stroke-linecap="round" stroke-linejoin="round"/>
<path d="M5.25 11.25V16.6616C5.25 17.0248 5.44689 17.3594 5.76436 17.5358L12 21M12 21L18.2356 17.5358C18.5531 17.3594 18.75 17.0248 18.75 16.6616V11.25M12 21V15M21.5 17.25V9" stroke="#585858" stroke-linecap="round" stroke-linejoin="round"/>
</svg>
