<svg width="24" height="24" viewBox="0 0 24 24" fill="none" xmlns="http://www.w3.org/2000/svg">
<path d="M10.8 21.6003H4.80001C3.47453 21.6003 2.40002 20.5258 2.40002 19.2003L2.40012 4.80038C2.40013 3.4749 3.47464 2.40039 4.80012 2.40039H15.6004C16.9259 2.40039 18.0004 3.47491 18.0004 4.80039V9.60039M6.6004 7.20039H13.8004M6.6004 10.8004H13.8004M6.6004 14.4004H10.2004" stroke="#1C1B1F" stroke-linecap="round" stroke-linejoin="round"/>
<path d="M13.8498 16.4029H21.3499M14.6 14.6982H20.5999C21.1522 14.6982 21.5999 15.134 21.5999 15.672L21.6 19.3257C21.6 19.8636 21.1523 20.2993 20.6 20.2993L14.6001 20.2993C14.0478 20.2993 13.6001 19.8632 13.6001 19.3252L13.6 15.6724C13.6 15.1344 14.0477 14.6982 14.6 14.6982Z" stroke="#1C1B1F" stroke-linecap="round" stroke-linejoin="round"/>
</svg>
