<svg width="24" height="24" viewBox="0 0 24 24" fill="none" xmlns="http://www.w3.org/2000/svg">
<path d="M22.3529 14.4588H17.5216C17.1642 14.4588 16.8745 14.7485 16.8745 15.1059V18.9451H14.0275V15.2475C15.4293 14.0143 14.5517 11.698 12.6902 11.698C11.2671 11.698 10.2847 13.1342 10.8006 14.4588H5.0549V9.19608H12C12.3573 9.19608 12.6471 8.90637 12.6471 8.54902V3.02745C12.6471 2.6701 12.3573 2.38039 12 2.38039H5.0549V1.64706C5.0549 1.28971 4.76519 1 4.40784 1C4.05049 1 3.76078 1.28971 3.76078 1.64706V14.4588H1.64706C1.28971 14.4588 1 14.7485 1 15.1059V22.3529C1 22.7103 1.28971 23 1.64706 23H22.3529C22.7103 23 23 22.7103 23 22.3529V15.1059C23 14.7485 22.7103 14.4588 22.3529 14.4588ZM11.3529 3.67451V7.90196H5.0549V3.67451H11.3529ZM11.9569 13.7255C11.9569 13.3211 12.2858 12.9922 12.6902 12.9922C13.0946 12.9922 13.4235 13.3211 13.4235 13.7255C13.4235 14.1299 13.0946 14.4588 12.6902 14.4588C12.2858 14.4588 11.9569 14.1299 11.9569 13.7255ZM21.7059 21.7059H2.29412V15.7529H12.7333V19.5922C12.7333 19.9495 13.023 20.2392 13.3804 20.2392H17.5216C17.8789 20.2392 18.1686 19.9495 18.1686 19.5922V15.7529H21.7059V21.7059Z" fill="black"/>
<path d="M7.85873 12.0432C7.50138 12.0432 7.21167 12.3329 7.21167 12.6902C7.21167 13.0476 7.50138 13.3373 7.85873 13.3373H9.23912C9.59647 13.3373 9.88618 13.0476 9.88618 12.6902C9.88618 12.3329 9.59647 12.0432 9.23912 12.0432H7.85873Z" fill="black"/>
<path d="M7.16854 6.43529H9.23913C9.59648 6.43529 9.88619 6.14558 9.88619 5.78823C9.88619 5.43088 9.59648 5.14117 9.23913 5.14117H7.16854C6.81119 5.14117 6.52148 5.43088 6.52148 5.78823C6.52148 6.14558 6.81119 6.43529 7.16854 6.43529Z" fill="black"/>
<path d="M18.7019 5.62504L18.166 3.62501C18.0735 3.27984 17.7187 3.07498 17.3735 3.16747C17.0284 3.25996 16.8235 3.61478 16.916 3.95995L17.4519 5.95999C17.5444 6.30516 17.8992 6.51002 18.2444 6.41753C18.5896 6.32504 18.7944 5.97022 18.7019 5.62504Z" fill="black"/>
<path d="M21.0398 6.97488L23.0399 6.43897C23.385 6.34648 23.7399 6.55134 23.8323 6.89651C23.9248 7.24168 23.72 7.5965 23.3748 7.68899L21.3748 8.2249C21.0296 8.31739 20.6748 8.11253 20.5823 7.76736C20.4898 7.42219 20.6947 7.06737 21.0398 6.97488Z" fill="black"/>
<path d="M20.551 6.41632L21.5863 4.62313C21.7649 4.31366 21.6589 3.91791 21.3494 3.73924C21.0399 3.56056 20.6442 3.6666 20.4655 3.97608L19.4302 5.76926C19.2515 6.07873 19.3576 6.47448 19.6671 6.65316C19.9765 6.83183 20.3723 6.72579 20.551 6.41632Z" fill="black"/>
</svg>
