<svg width="45" height="44" viewBox="0 0 45 44" fill="none" xmlns="http://www.w3.org/2000/svg">
<path d="M8.65859 37.6763L8.65693 37.6747C8.4276 37.4464 8.33325 37.2116 8.33325 36.9523V17.0528C8.33325 16.8684 8.37207 16.7228 8.43766 16.603L8.43839 16.6017C8.51561 16.4596 8.61793 16.3366 8.74897 16.2309L22.0076 6.17638C22.0079 6.17615 22.0082 6.17591 22.0086 6.17568C22.1133 6.09728 22.2007 6.05794 22.2711 6.04035C22.3715 6.01525 22.4956 6 22.6473 6C22.799 6 22.9231 6.01525 23.0235 6.04035C23.0939 6.05793 23.1813 6.09726 23.286 6.17563C23.2863 6.17588 23.2867 6.17613 23.287 6.17638L36.5457 16.2309C36.6767 16.3366 36.779 16.4596 36.8562 16.6017L36.857 16.603C36.9226 16.7228 36.9614 16.8684 36.9614 17.0528V36.9523C36.9614 37.2124 36.8671 37.4474 36.6391 37.6755C36.409 37.9055 36.1731 38 35.9136 38H27.0167V24.7915V24.2915H26.5167H18.778H18.278V24.7915V38H9.38099C9.12166 38 8.88685 37.9057 8.65859 37.6763Z" fill="#0000CD" stroke="#0000CD"/>
</svg>
