<svg width="45" height="44" viewBox="0 0 45 44" fill="none" xmlns="http://www.w3.org/2000/svg">
<path d="M23.3973 12.2477C25.3908 12.5933 27.2018 13.5674 28.6475 15.0599C30.0932 16.5524 31.0291 18.4219 31.3715 20.48M23.7017 5.5C27.2474 6.12057 30.4813 7.85658 33.0531 10.5038C35.6249 13.1589 37.2989 16.4974 37.9 20.1579M35.1303 34.7216C35.1303 34.7216 33.2052 36.6776 32.7335 37.251C31.9649 38.0994 31.0595 38.5 29.8725 38.5C29.7583 38.5 29.6366 38.5 29.5225 38.4921C27.2626 38.3429 25.1625 37.4317 23.5875 36.654C19.2808 34.5017 15.4991 31.446 12.3566 27.5733C9.76195 24.3448 8.0271 21.3598 6.87814 18.1548C6.17051 16.1989 5.9118 14.675 6.02594 13.2374C6.10203 12.3184 6.44443 11.5564 7.07598 10.9044L9.67064 8.22578C10.0435 7.86443 10.4391 7.66805 10.8272 7.66805C11.3066 7.66805 11.6946 7.96655 11.9381 8.21792C11.9457 8.22578 11.9533 8.23363 11.9609 8.24149C12.4251 8.68924 12.8664 9.1527 13.3306 9.64758C13.5664 9.89895 13.8099 10.1503 14.0534 10.4095L16.1307 12.554C16.9372 13.3867 16.9372 14.1565 16.1307 14.9892C15.91 15.217 15.6969 15.4448 15.4763 15.6647C14.8371 16.3403 15.3392 15.8219 14.6772 16.4346C14.662 16.4503 14.6468 16.4582 14.6392 16.4739C13.9848 17.1495 14.1066 17.8093 14.2435 18.2571C14.2511 18.2806 14.2588 18.3042 14.2664 18.3278C14.8066 19.6789 15.5675 20.9514 16.7241 22.4675L16.7317 22.4753C18.8317 25.1461 21.046 27.2278 23.4884 28.8224C23.8004 29.0266 24.12 29.1916 24.4243 29.3487C24.6983 29.4901 24.957 29.6236 25.1776 29.765C25.2081 29.7807 25.2385 29.8043 25.2689 29.82C25.5277 29.9536 25.7711 30.0164 26.0222 30.0164C26.6538 30.0164 27.0494 29.6079 27.1788 29.4744L28.6703 27.9347C28.929 27.6676 29.3399 27.3455 29.8192 27.3455C30.291 27.3455 30.679 27.6519 30.9149 27.9189C30.9225 27.9268 30.9225 27.9268 30.9301 27.9347L35.1227 32.2629C35.9064 33.0642 35.1303 34.7216 35.1303 34.7216Z" stroke="#585858" stroke-width="1.5" stroke-linecap="round" stroke-linejoin="round"/>
</svg>
