<svg width="45" height="44" viewBox="0 0 45 44" fill="none" xmlns="http://www.w3.org/2000/svg">
<path d="M8.83579 37.5L8.83329 37.4975C8.64628 37.3113 8.58325 37.1386 8.58325 36.9523V17.0528C8.58325 16.9053 8.61384 16.8018 8.65695 16.7231L8.65805 16.721C8.7187 16.6094 8.79867 16.5126 8.90322 16.4277L22.1576 6.37638C22.1581 6.37604 22.1585 6.37571 22.159 6.37537C22.2423 6.31312 22.2998 6.29088 22.3317 6.28288C22.4086 6.26366 22.5119 6.25 22.6473 6.25C22.7827 6.25 22.886 6.26366 22.9629 6.28288C22.9949 6.29088 23.0524 6.31312 23.1357 6.37537C23.1361 6.37571 23.1366 6.37604 23.137 6.37638L36.3914 16.4276C36.496 16.5126 36.5759 16.6094 36.6366 16.721L36.6377 16.7231C36.6808 16.8018 36.7114 16.9053 36.7114 17.0528V36.9523C36.7114 37.1398 36.6481 37.3129 36.4623 37.4987C36.2742 37.6868 36.1002 37.75 35.9136 37.75H27.2667V24.7915V24.0415H26.5167H18.778H18.028V24.7915V37.75H9.38099C9.19467 37.75 9.02192 37.687 8.83579 37.5Z" stroke="#585858" stroke-width="1.5"/>
</svg>
