<svg width="45" height="44" viewBox="0 0 45 44" fill="none" xmlns="http://www.w3.org/2000/svg">
<path d="M19.8948 37.4C17.9553 37.4 16.1461 37.0333 14.4672 36.3C12.7882 35.5667 11.3194 34.5623 10.0608 33.2869C8.80101 32.0103 7.80927 30.5213 7.08559 28.82C6.3619 27.1187 6.00006 25.2853 6.00006 23.32C6.00006 19.4187 7.35364 16.0964 10.0608 13.3531C12.7668 10.611 16.0448 9.24 19.8948 9.24C20.3869 9.24 20.857 9.26171 21.3051 9.30512C21.7544 9.34971 22.2106 9.416 22.6737 9.504C22.8474 9.53333 23.0066 9.64304 23.1514 9.83312C23.2961 10.0244 23.3685 10.2227 23.3685 10.428C23.3685 10.7507 23.2747 10.9853 23.0871 11.132C22.8984 11.2787 22.6448 11.3227 22.3264 11.264C21.9211 11.176 21.5234 11.1097 21.1332 11.0651C20.7418 11.0217 20.329 11 19.8948 11C16.5369 11 13.6711 12.2027 11.2974 14.608C8.92375 17.0133 7.7369 19.9173 7.7369 23.32C7.7369 26.7227 8.92375 29.6267 11.2974 32.032C13.6711 34.4373 16.5369 35.64 19.8948 35.64C23.2527 35.64 26.1185 34.4444 28.4922 32.0531C30.8658 29.663 32.0527 26.7667 32.0527 23.364C32.0527 23.188 32.0457 23.0196 32.0319 22.8589C32.0168 22.697 31.9948 22.528 31.9659 22.352C31.9659 22.0587 32.0452 21.8164 32.2038 21.6251C32.3636 21.435 32.5737 21.34 32.8343 21.34C33.0659 21.34 33.2615 21.4133 33.4213 21.56C33.58 21.7067 33.6737 21.8973 33.7027 22.132C33.7316 22.308 33.7536 22.5057 33.7687 22.7251C33.7826 22.9457 33.7895 23.144 33.7895 23.32C33.7895 27.2213 32.4365 30.5436 29.7305 33.2869C27.0234 36.0289 23.7448 37.4 19.8948 37.4ZM32.9211 17.82C32.6606 17.82 32.451 17.7396 32.2924 17.5789C32.1326 17.417 32.0527 17.204 32.0527 16.94V12.54H27.7106C27.479 12.54 27.2764 12.459 27.1027 12.2971C26.929 12.1364 26.8422 11.924 26.8422 11.66C26.8422 11.4253 26.929 11.22 27.1027 11.044C27.2764 10.868 27.479 10.78 27.7106 10.78H32.0527V6.38C32.0527 6.14533 32.1395 5.94 32.3132 5.764C32.4869 5.588 32.6895 5.5 32.9211 5.5C33.1816 5.5 33.3918 5.588 33.5516 5.764C33.7102 5.94 33.7895 6.14533 33.7895 6.38V10.78H38.1316C38.3922 10.78 38.6023 10.868 38.7621 11.044C38.9207 11.22 39.0001 11.4253 39.0001 11.66C39.0001 11.924 38.9207 12.1364 38.7621 12.2971C38.6023 12.459 38.3922 12.54 38.1316 12.54H33.7895V16.94C33.7895 17.204 33.7027 17.417 33.529 17.5789C33.3553 17.7396 33.1527 17.82 32.9211 17.82ZM24.758 29.48L19.4606 24.112C19.2869 23.9653 19.1711 23.804 19.1132 23.628C19.0553 23.452 19.0264 23.276 19.0264 23.1V15.4C19.0264 15.1653 19.1132 14.96 19.2869 14.784C19.4606 14.608 19.6632 14.52 19.8948 14.52C20.1553 14.52 20.3655 14.608 20.5253 14.784C20.6839 14.96 20.7632 15.1653 20.7632 15.4V22.968L25.9737 28.248C26.1474 28.3947 26.2343 28.5924 26.2343 28.8411C26.2343 29.091 26.1474 29.304 25.9737 29.48C25.8001 29.656 25.5974 29.744 25.3658 29.744C25.1343 29.744 24.9316 29.656 24.758 29.48Z" fill="#585858"/>
</svg>
