<svg width="45" height="44" viewBox="0 0 45 44" fill="none" xmlns="http://www.w3.org/2000/svg">
<path d="M11.8666 32.0375C13.4249 30.9375 15.0749 30.0593 16.8166 29.403C18.5583 28.7454 20.4527 28.4167 22.4999 28.4167C24.5472 28.4167 26.4416 28.7454 28.1833 29.403C29.9249 30.0593 31.5749 30.9375 33.1333 32.0375C34.3555 30.7847 35.3333 29.3101 36.0666 27.6137C36.7999 25.9184 37.1666 24.0472 37.1666 22C37.1666 17.9361 35.7384 14.4754 32.8821 11.6178C30.0246 8.7615 26.5638 7.33333 22.4999 7.33333C18.4361 7.33333 14.9759 8.7615 12.1196 11.6178C9.26205 14.4754 7.83327 17.9361 7.83327 22C7.83327 24.0472 8.19994 25.9184 8.93327 27.6137C9.66661 29.3101 10.6444 30.7847 11.8666 32.0375ZM22.4999 22.9167C20.9416 22.9167 19.6357 22.3893 18.5821 21.3345C17.5273 20.2809 16.9999 18.975 16.9999 17.4167C16.9999 15.8583 17.5273 14.5518 18.5821 13.497C19.6357 12.4434 20.9416 11.9167 22.4999 11.9167C24.0583 11.9167 25.3642 12.4434 26.4178 13.497C27.4726 14.5518 27.9999 15.8583 27.9999 17.4167C27.9999 18.975 27.4726 20.2809 26.4178 21.3345C25.3642 22.3893 24.0583 22.9167 22.4999 22.9167ZM22.4999 38.5C20.2083 38.5 18.0541 38.0722 16.0374 37.2167C14.0208 36.3611 12.2718 35.1927 10.7904 33.7113C9.30788 32.2288 8.13883 30.4792 7.28327 28.4625C6.42772 26.4458 5.99994 24.2917 5.99994 22C5.99994 19.7083 6.42772 17.5542 7.28327 15.5375C8.13883 13.5208 9.30788 11.7712 10.7904 10.2887C12.2718 8.80733 14.0208 7.63889 16.0374 6.78333C18.0541 5.92778 20.2083 5.5 22.4999 5.5C24.7916 5.5 26.9458 5.92778 28.9624 6.78333C30.9791 7.63889 32.7287 8.80733 34.2113 10.2887C35.6926 11.7712 36.861 13.5208 37.7166 15.5375C38.5722 17.5542 38.9999 19.7083 38.9999 22C38.9999 24.2917 38.5722 26.4458 37.7166 28.4625C36.861 30.4792 35.6926 32.2288 34.2113 33.7113C32.7287 35.1927 30.9791 36.3611 28.9624 37.2167C26.9458 38.0722 24.7916 38.5 22.4999 38.5ZM22.4999 36.6667C24.1805 36.6667 25.8384 36.3684 27.4738 35.772C29.1079 35.1768 30.5208 34.375 31.7124 33.3667C30.5208 32.3889 29.1458 31.625 27.5874 31.075C26.0291 30.525 24.3333 30.25 22.4999 30.25C20.6666 30.25 18.9634 30.525 17.3904 31.075C15.8162 31.625 14.4486 32.3889 13.2874 33.3667C14.4791 34.375 15.892 35.1768 17.5261 35.772C19.1614 36.3684 20.8194 36.6667 22.4999 36.6667ZM22.4999 21.0833C23.5388 21.0833 24.4097 20.7319 25.1124 20.0292C25.8152 19.3264 26.1666 18.4556 26.1666 17.4167C26.1666 16.3778 25.8152 15.5069 25.1124 14.8042C24.4097 14.1014 23.5388 13.75 22.4999 13.75C21.4611 13.75 20.5902 14.1014 19.8874 14.8042C19.1847 15.5069 18.8333 16.3778 18.8333 17.4167C18.8333 18.4556 19.1847 19.3264 19.8874 20.0292C20.5902 20.7319 21.4611 21.0833 22.4999 21.0833Z" fill="#585858"/>
</svg>
