<svg width="24" height="24" viewBox="0 0 24 24" fill="none" xmlns="http://www.w3.org/2000/svg">
<path d="M19.6 5.71538H20.1H19.6ZM19.6 20.4846H20.1H19.6ZM17.26 22.7V23.2V22.7ZM6.34 22.7V23.2V22.7ZM8.06252 8.12007C7.78637 8.12007 7.56252 8.34393 7.56252 8.62007C7.56252 8.89621 7.78637 9.12007 8.06252 9.12007V8.12007ZM15.5505 9.12007C15.8267 9.12007 16.0505 8.89621 16.0505 8.62007C16.0505 8.34393 15.8267 8.12007 15.5505 8.12007V9.12007ZM8.06252 11.6647C7.78637 11.6647 7.56252 11.8885 7.56252 12.1647C7.56252 12.4408 7.78637 12.6647 8.06252 12.6647V11.6647ZM15.5505 12.6647C15.8267 12.6647 16.0505 12.4408 16.0505 12.1647C16.0505 11.8885 15.8267 11.6647 15.5505 11.6647V12.6647ZM8.06252 15.2093C7.78637 15.2093 7.56252 15.4332 7.56252 15.7093C7.56252 15.9854 7.78637 16.2093 8.06252 16.2093V15.2093ZM11.8065 16.2093C12.0827 16.2093 12.3065 15.9854 12.3065 15.7093C12.3065 15.4332 12.0827 15.2093 11.8065 15.2093V16.2093ZM15.7 4H17.26V3H15.7V4ZM17.26 4C17.7566 4 18.2276 4.18701 18.5709 4.51196L19.2584 3.78578C18.7239 3.2798 18.0047 3 17.26 3V4ZM18.5709 4.51196C18.9132 4.83603 19.1 5.26954 19.1 5.71538H20.1C20.1 4.98612 19.7938 4.29264 19.2584 3.78578L18.5709 4.51196ZM19.1 5.71538V20.4846H20.1V5.71538H19.1ZM19.1 20.4846C19.1 20.9305 18.9132 21.364 18.5709 21.688L19.2584 22.4142C19.7938 21.9074 20.1 21.2139 20.1 20.4846H19.1ZM18.5709 21.688C18.2276 22.013 17.7566 22.2 17.26 22.2V23.2C18.0047 23.2 18.7239 22.9202 19.2584 22.4142L18.5709 21.688ZM17.26 22.2H6.34V23.2H17.26V22.2ZM6.34 22.2C5.84344 22.2 5.37235 22.013 5.02912 21.688L4.34162 22.4142C4.87606 22.9202 5.59535 23.2 6.34 23.2V22.2ZM5.02912 21.688C4.68682 21.364 4.5 20.9305 4.5 20.4846H3.5C3.5 21.2139 3.80625 21.9074 4.34162 22.4142L5.02912 21.688ZM4.5 20.4846V5.71538H3.5V20.4846H4.5ZM4.5 5.71538C4.5 5.26954 4.68682 4.83603 5.02912 4.51196L4.34162 3.78578C3.80625 4.29264 3.5 4.98612 3.5 5.71538H4.5ZM5.02912 4.51196C5.37235 4.18701 5.84344 4 6.34 4V3C5.59535 3 4.87606 3.2798 4.34162 3.78578L5.02912 4.51196ZM6.34 4H7.9V3H6.34V4ZM8.06252 9.12007H15.5505V8.12007H8.06252V9.12007ZM8.06252 12.6647H15.5505V11.6647H8.06252V12.6647ZM8.06252 16.2093H11.8065V15.2093H8.06252V16.2093Z" fill="#1C1B1F"/>
<path d="M14.5262 2H9.27384C8.57032 2 8 2.54838 8 3.22484V3.77516C8 4.45162 8.57032 5 9.27384 5H14.5262C15.2297 5 15.8 4.45162 15.8 3.77516V3.22484C15.8 2.54838 15.2297 2 14.5262 2Z" stroke="#1C1B1F" stroke-linejoin="round"/>
</svg>
