<svg width="24" height="24" viewBox="0 0 24 24" fill="none" xmlns="http://www.w3.org/2000/svg">
<mask id="mask0_317_18794" style="mask-type:alpha" maskUnits="userSpaceOnUse" x="0" y="0" width="24" height="24">
<rect width="24" height="24" fill="#D9D9D9"/>
</mask>
<g mask="url(#mask0_317_18794)">
<path d="M12 15.9789C12.1965 15.9789 12.3579 15.9158 12.4842 15.7895C12.6105 15.6632 12.6737 15.5018 12.6737 15.3053C12.6737 15.1088 12.6105 14.9474 12.4842 14.8211C12.3579 14.6947 12.1965 14.6316 12 14.6316C11.8035 14.6316 11.6421 14.6947 11.5158 14.8211C11.3895 14.9474 11.3263 15.1088 11.3263 15.3053C11.3263 15.5018 11.3895 15.6632 11.5158 15.7895C11.6421 15.9158 11.8035 15.9789 12 15.9789ZM11.3684 12.9053H12.6316V7.85263H11.3684V12.9053ZM12 20C10.8912 20 9.84926 19.7895 8.87411 19.3684C7.89839 18.9474 7.05263 18.3789 6.33684 17.6632C5.62105 16.9474 5.05263 16.1016 4.63158 15.1259C4.21053 14.1507 4 13.1088 4 12C4 10.8912 4.21053 9.84898 4.63158 8.87326C5.05263 7.89811 5.62105 7.05263 6.33684 6.33684C7.05263 5.62105 7.89839 5.05263 8.87411 4.63158C9.84926 4.21053 10.8912 4 12 4C13.1088 4 14.151 4.21053 15.1267 4.63158C16.1019 5.05263 16.9474 5.62105 17.6632 6.33684C18.3789 7.05263 18.9474 7.89811 19.3684 8.87326C19.7895 9.84898 20 10.8912 20 12C20 13.1088 19.7895 14.1507 19.3684 15.1259C18.9474 16.1016 18.3789 16.9474 17.6632 17.6632C16.9474 18.3789 16.1019 18.9474 15.1267 19.3684C14.151 19.7895 13.1088 20 12 20ZM12 18.7368C13.8807 18.7368 15.4737 18.0842 16.7789 16.7789C18.0842 15.4737 18.7368 13.8807 18.7368 12C18.7368 10.1193 18.0842 8.52632 16.7789 7.22105C15.4737 5.91579 13.8807 5.26316 12 5.26316C10.1193 5.26316 8.52632 5.91579 7.22105 7.22105C5.91579 8.52632 5.26316 10.1193 5.26316 12C5.26316 13.8807 5.91579 15.4737 7.22105 16.7789C8.52632 18.0842 10.1193 18.7368 12 18.7368Z" fill="#9CA0A5"/>
</g>
</svg>
