<svg width="24" height="24" viewBox="0 0 24 24" fill="none" xmlns="http://www.w3.org/2000/svg">
<path d="M12.4894 6.68056C13.5768 6.86909 14.5646 7.40039 15.3532 8.21448C16.1417 9.02858 16.6522 10.0483 16.839 11.1709M12.6554 3C14.5895 3.33849 16.3534 4.28541 17.7562 5.72935C19.1591 7.17758 20.0721 8.99857 20.4 10.9952M18.8892 18.9391C18.8892 18.9391 17.8392 20.006 17.5819 20.3187C17.1627 20.7815 16.6688 21 16.0214 21C15.9591 21 15.8927 21 15.8304 20.9957C14.5978 20.9143 13.4523 20.4173 12.5932 19.9931C10.2441 18.8191 8.18134 17.1523 6.46724 15.04C5.05197 13.279 4.10569 11.6508 3.47899 9.90264C3.093 8.83575 2.95189 8.00452 3.01415 7.22042C3.05565 6.71911 3.24242 6.3035 3.5869 5.94787L5.00217 4.48679C5.20553 4.28969 5.42135 4.18257 5.63302 4.18257C5.89449 4.18257 6.10616 4.34539 6.23897 4.4825C6.24312 4.48679 6.24727 4.49107 6.25142 4.49536C6.50459 4.73958 6.74531 4.99238 6.99849 5.26232C7.12715 5.39943 7.25996 5.53654 7.39277 5.67793L8.52582 6.84765C8.96575 7.30183 8.96575 7.72173 8.52582 8.17591C8.40546 8.30017 8.28925 8.42442 8.16889 8.54439C7.82026 8.91288 8.09412 8.63014 7.73304 8.96435C7.72474 8.97292 7.71644 8.9772 7.71229 8.98577C7.35536 9.35425 7.42177 9.71417 7.49647 9.9584C7.50062 9.97125 7.50477 9.9841 7.50892 9.99696C7.8036 10.7339 8.21863 11.428 8.84949 12.255L8.85364 12.2593C9.99914 13.7161 11.2069 14.8515 12.5392 15.7213C12.7093 15.8327 12.8836 15.9227 13.0496 16.0084C13.1991 16.0855 13.3402 16.1583 13.4605 16.2355C13.4771 16.244 13.4937 16.2569 13.5103 16.2655C13.6514 16.3383 13.7843 16.3726 13.9212 16.3726C14.2657 16.3726 14.4815 16.1498 14.5521 16.0769L15.3656 15.2371C15.5067 15.0914 15.7308 14.9157 15.9923 14.9157C16.2496 14.9157 16.4613 15.0828 16.5899 15.2285C16.5941 15.2328 16.5941 15.2328 16.5983 15.2371L18.8851 17.598C19.3126 18.035 18.8892 18.9391 18.8892 18.9391Z" stroke="#1C1B1F" stroke-linecap="round" stroke-linejoin="round"/>
</svg>
