<svg width="22" height="22" viewBox="0 0 22 22" fill="none" xmlns="http://www.w3.org/2000/svg">
<path d="M11.0004 13.4004L10.3442 14.155C10.7205 14.4822 11.2803 14.4822 11.6566 14.155L11.0004 13.4004ZM5.87357 14.2547C6.40485 14.1038 6.71323 13.5508 6.56235 13.0196C6.41148 12.4883 5.85849 12.1799 5.32721 12.3308L5.87357 14.2547ZM16.6736 12.3308C16.1423 12.1799 15.5893 12.4883 15.4384 13.0196C15.2876 13.5508 15.5959 14.1038 16.1272 14.2547L16.6736 12.3308ZM14.8004 6.09604C14.8004 6.64061 14.5851 7.31679 14.1709 8.08205C13.764 8.83392 13.2089 9.59239 12.6333 10.2806C12.0605 10.9654 11.4849 11.5601 11.0511 11.9845C10.8348 12.196 10.6553 12.3638 10.5311 12.4776C10.469 12.5345 10.4209 12.5778 10.3889 12.6062C10.373 12.6205 10.361 12.631 10.3535 12.6376C10.3497 12.641 10.347 12.6433 10.3455 12.6447C10.3447 12.6454 10.3442 12.6458 10.344 12.646C10.3439 12.6461 10.3438 12.6461 10.3439 12.6461C10.3439 12.6461 10.344 12.646 10.344 12.646C10.3441 12.6459 10.3442 12.6458 11.0004 13.4004C11.6566 14.155 11.6567 14.1549 11.6569 14.1547C11.657 14.1546 11.6572 14.1545 11.6573 14.1543C11.6577 14.154 11.6581 14.1537 11.6585 14.1533C11.6595 14.1524 11.6607 14.1514 11.6623 14.15C11.6653 14.1474 11.6695 14.1437 11.6748 14.139C11.6854 14.1297 11.7005 14.1164 11.7197 14.0993C11.758 14.0651 11.813 14.0156 11.8822 13.9523C12.0204 13.8256 12.216 13.6428 12.4497 13.4141C12.9159 12.958 13.5403 12.3136 14.1675 11.5637C14.7919 10.8171 15.4368 9.94513 15.9299 9.03395C16.4157 8.13616 16.8004 7.11669 16.8004 6.09604H14.8004ZM11.0004 13.4004C11.6566 12.6458 11.6567 12.6459 11.6568 12.646C11.6568 12.646 11.6569 12.6461 11.6569 12.6461C11.6569 12.6461 11.6569 12.6461 11.6568 12.646C11.6566 12.6458 11.6561 12.6454 11.6553 12.6447C11.6537 12.6433 11.6511 12.641 11.6473 12.6376C11.6397 12.631 11.6278 12.6205 11.6119 12.6062C11.5799 12.5778 11.5317 12.5345 11.4697 12.4776C11.3454 12.3638 11.166 12.196 10.9497 11.9845C10.5159 11.5601 9.94026 10.9654 9.36747 10.2806C8.7919 9.59239 8.23676 8.83392 7.82986 8.08205C7.41573 7.31679 7.20039 6.64061 7.20039 6.09604H5.20039C5.20039 7.11669 5.58506 8.13616 6.07092 9.03395C6.56403 9.94513 7.20888 10.8171 7.83331 11.5637C8.46052 12.3136 9.08485 12.958 9.5511 13.4141C9.78483 13.6428 9.98035 13.8256 10.1186 13.9523C10.1878 14.0156 10.2428 14.0651 10.2811 14.0993C10.3003 14.1164 10.3153 14.1297 10.326 14.139C10.3313 14.1437 10.3355 14.1474 10.3385 14.15C10.34 14.1514 10.3413 14.1524 10.3422 14.1533C10.3427 14.1537 10.3431 14.154 10.3434 14.1543C10.3436 14.1545 10.3438 14.1546 10.3439 14.1547C10.3441 14.1549 10.3442 14.155 11.0004 13.4004ZM7.20039 6.09604C7.20039 4.0756 8.88088 2.40039 11.0004 2.40039V0.400391C7.81797 0.400391 5.20039 2.92981 5.20039 6.09604H7.20039ZM11.0004 2.40039C13.1199 2.40039 14.8004 4.0756 14.8004 6.09604H16.8004C16.8004 2.92981 14.1828 0.400391 11.0004 0.400391V2.40039ZM19.6004 16.6004C19.6004 16.8043 19.5054 17.0891 19.1442 17.445C18.7794 17.8043 18.2003 18.1739 17.404 18.5057C15.8158 19.1675 13.5523 19.6004 11.0004 19.6004V21.6004C13.7504 21.6004 16.2869 21.1378 18.1732 20.3519C19.1142 19.9598 19.9409 19.4675 20.5478 18.8698C21.1581 18.2685 21.6004 17.501 21.6004 16.6004H19.6004ZM11.0004 19.6004C8.44845 19.6004 6.18502 19.1675 4.59678 18.5057C3.80048 18.1739 3.22135 17.8043 2.85659 17.445C2.49535 17.0891 2.40039 16.8043 2.40039 16.6004H0.400391C0.400391 17.501 0.842692 18.2685 1.45302 18.8698C2.05983 19.4675 2.88659 19.9598 3.82755 20.3519C5.71383 21.1378 8.25039 21.6004 11.0004 21.6004V19.6004ZM2.40039 16.6004C2.40039 16.3494 2.55143 15.9622 3.16014 15.493C3.75881 15.0316 4.67899 14.5939 5.87357 14.2547L5.32721 12.3308C3.98646 12.7115 2.80664 13.2403 1.93915 13.909C1.08169 14.5699 0.400391 15.4765 0.400391 16.6004H2.40039ZM16.1272 14.2547C17.3218 14.5939 18.242 15.0316 18.8406 15.493C19.4493 15.9622 19.6004 16.3494 19.6004 16.6004H21.6004C21.6004 15.4765 20.9191 14.5699 20.0616 13.909C19.1941 13.2403 18.0143 12.7115 16.6736 12.3308L16.1272 14.2547Z" fill="#1C1B1F"/>
</svg>
