<svg width="24" height="24" viewBox="0 0 24 24" fill="none" xmlns="http://www.w3.org/2000/svg">
<circle cx="11.6431" cy="12.3767" r="9.25" fill="#0000CD"/>
<path d="M11.6432 17.5826C11.4761 17.5826 11.338 17.5281 11.229 17.4191C11.1195 17.3096 11.0647 17.1713 11.0647 17.0042V12.9551H7.01569C6.84859 12.9551 6.71053 12.9004 6.60153 12.7909C6.49201 12.6819 6.43726 12.5438 6.43726 12.3767C6.43726 12.2096 6.49201 12.0713 6.60153 11.9618C6.71053 11.8528 6.84859 11.7983 7.01569 11.7983H11.0647V7.74921C11.0647 7.58211 11.1195 7.44406 11.229 7.33505C11.338 7.22553 11.4761 7.17078 11.6432 7.17078C11.8103 7.17078 11.9486 7.22553 12.0581 7.33505C12.1671 7.44406 12.2216 7.58211 12.2216 7.74921V11.7983H16.2707C16.4378 11.7983 16.5761 11.8528 16.6856 11.9618C16.7946 12.0713 16.8491 12.2096 16.8491 12.3767C16.8491 12.5438 16.7946 12.6819 16.6856 12.7909C16.5761 12.9004 16.4378 12.9551 16.2707 12.9551H12.2216V17.0042C12.2216 17.1713 12.1671 17.3096 12.0581 17.4191C11.9486 17.5281 11.8103 17.5826 11.6432 17.5826Z" fill="white"/>
</svg>
