<svg width="24" height="24" viewBox="0 0 24 24" fill="none" xmlns="http://www.w3.org/2000/svg">
<path d="M10.2 21.6004H7.8C5.81177 21.6004 4.2 19.9886 4.2 18.0004V6.00039C4.2 4.01217 5.81177 2.40039 7.8 2.40039H16.2C18.1882 2.40039 19.8 4.01217 19.8 6.00039V9.00039M15.6 7.20039H7.8M12 10.8004H7.8M10.2 14.4004H7.8M13.8 14.7004L15.19 14.0054C16.2035 13.4986 17.3965 13.4986 18.41 14.0054L19.8 14.7004C19.8 14.7004 19.8 16.8904 19.8 18.0454C19.8 19.2004 18.7323 19.9801 16.8 21.2004C14.8677 19.9801 13.8 18.9504 13.8 18.0454V14.7004Z" stroke="#1C1B1F" stroke-linecap="round" stroke-linejoin="round"/>
</svg>
