<svg width="26" height="26" viewBox="0 0 26 26" fill="none" xmlns="http://www.w3.org/2000/svg">
<rect x="0.5" y="0.5" width="25" height="25" rx="9.5" fill="white"/>
<path d="M10.9684 7.77244L11.7348 6.67679C11.9219 6.40932 12.2278 6.25 12.5542 6.25H13.4471C13.7723 6.25 14.0772 6.40814 14.2645 6.67396L15.0219 7.74872M10.9684 7.77244C10.733 8.10646 10.3418 8.27013 9.92653 8.24095M10.9684 7.77244C10.7319 8.10566 10.3418 8.27149 9.92653 8.24095M9.92653 8.24095L8.56277 8.15578C8.24295 8.13581 7.93292 8.27032 7.72901 8.51753L7.17368 9.19079C6.95586 9.45486 6.88825 9.812 6.99447 10.1374L7.38356 11.3294M7.38356 11.3294C7.44391 11.524 7.45163 11.7325 7.40844 11.9295M7.38356 11.3294C7.44477 11.5237 7.4522 11.7318 7.40816 11.9315M7.40844 11.9295C7.36469 12.124 7.27089 12.3078 7.13161 12.4566M7.40844 11.9295L7.40816 11.9315M7.13161 12.4566L6.24347 13.4068C6.0135 13.6528 5.92282 13.9981 6.00221 14.3254L6.19261 15.1102C6.27147 15.4353 6.50764 15.6994 6.8219 15.814L8.04533 16.26C8.23866 16.3344 8.40567 16.4554 8.53208 16.6078M7.13161 12.4566C7.27174 12.309 7.36469 12.1259 7.40816 11.9315M8.53208 16.6078C8.65762 16.7606 8.74313 16.945 8.77631 17.1447M8.53208 16.6078C8.65877 16.7606 8.74456 16.9445 8.77631 17.1447M8.53208 16.6078L8.53007 16.6056C8.52178 16.5956 8.51291 16.5852 8.50433 16.5755M8.77631 17.1447L8.98429 18.4156C9.03789 18.7431 9.25054 19.0227 9.55187 19.1619L10.3539 19.5323C10.6439 19.6663 10.9804 19.6536 11.2595 19.4983L12.4166 18.8543M12.4166 18.8543C12.5965 18.7538 12.7972 18.7034 12.998 18.7032M12.4166 18.8543C12.4878 18.814 12.5624 18.7818 12.6391 18.7577C12.7555 18.721 12.8767 18.7029 12.998 18.7032M12.998 18.7032C13.1024 18.7034 13.2068 18.7171 13.3086 18.7442C13.4032 18.7695 13.4953 18.8062 13.5825 18.8543M12.998 18.7032C13.1996 18.7029 13.4015 18.7533 13.5825 18.8543M13.5825 18.8543L14.8 19.5099C15.0803 19.6608 15.4157 19.6693 15.7032 19.5327L16.5017 19.1533C16.802 19.0107 17.0118 18.7281 17.0614 18.3993L17.2469 17.1701M17.2469 17.1701C17.2786 16.9693 17.363 16.7835 17.4882 16.6293M17.2469 17.1701C17.2775 16.9689 17.3624 16.7833 17.4882 16.6293M17.4882 16.6293C17.6126 16.4768 17.7776 16.3552 17.9698 16.2801M17.4882 16.6293C17.6123 16.4762 17.7768 16.3543 17.9698 16.2801M17.9698 16.2801L19.2108 15.7963C19.5192 15.676 19.7481 15.411 19.8222 15.0884L20.0065 14.2856C20.0806 13.9628 19.9901 13.6242 19.7647 13.3815L18.8678 12.4154M18.8678 12.4154C18.726 12.2661 18.627 12.0878 18.579 11.8982M18.8678 12.4154C18.8012 12.3457 18.744 12.2695 18.6974 12.1886C18.6442 12.0968 18.6044 11.9992 18.579 11.8982M18.579 11.8982C18.5318 11.71 18.5346 11.5106 18.5944 11.3176L18.9799 10.0884C19.0812 9.76537 19.0122 9.41302 18.7965 9.15207L18.2603 8.50326C18.054 8.25371 17.7397 8.11946 17.4168 8.14299L16.0723 8.24095M16.0723 8.24095C15.8658 8.25545 15.6628 8.21633 15.4821 8.13216M16.0723 8.24095C15.8656 8.25629 15.6628 8.21685 15.4821 8.13216M15.4821 8.13216C15.3002 8.04692 15.1406 7.91583 15.0219 7.74872M15.4821 8.13216C15.2999 8.04723 15.14 7.91649 15.0219 7.74872M7.40816 11.9315L7.40873 11.9285M15.2976 13.0072C15.2976 14.266 14.2486 15.2865 12.9548 15.2865C11.661 15.2865 10.612 14.266 10.612 13.0072C10.612 11.7483 11.661 10.7279 12.9548 10.7279C14.2486 10.7279 15.2976 11.7483 15.2976 13.0072Z" stroke="#9CA0A5"/>
<rect x="0.5" y="0.5" width="25" height="25" rx="9.5" stroke="#E8E8E8"/>
</svg>
