<svg width="24" height="24" viewBox="0 0 24 24" fill="none" xmlns="http://www.w3.org/2000/svg">
<path d="M9.29116 5.02992L10.4126 3.42679C10.5997 3.15932 10.9056 3 11.232 3H12.769C13.0942 3 13.3991 3.15814 13.5865 3.42396L14.6959 4.99829M9.29116 5.02992C8.97734 5.47528 8.45571 5.69351 7.90204 5.6546M9.29116 5.02992C8.97582 5.47421 8.45571 5.69532 7.90204 5.6546M7.90204 5.6546L5.91398 5.53045C5.59416 5.51047 5.28413 5.64498 5.08022 5.89219L4.11497 7.0624C3.89716 7.32647 3.82955 7.68361 3.93577 8.00903L4.51142 9.77254M4.51142 9.77254C4.59188 10.032 4.60217 10.31 4.54459 10.5726M4.51142 9.77254C4.59302 10.0316 4.60293 10.309 4.54421 10.5753M4.54459 10.5726C4.48625 10.8321 4.36118 11.077 4.17548 11.2754M4.54459 10.5726L4.54421 10.5753M4.17548 11.2754L2.86847 12.6738C2.6385 12.9198 2.54782 13.2651 2.62721 13.5924L2.96556 14.9871C3.04442 15.3122 3.28059 15.5763 3.59485 15.6908L5.39377 16.3467C5.65154 16.4459 5.87423 16.6072 6.04277 16.8104M4.17548 11.2754C4.36233 11.0787 4.48625 10.8345 4.54421 10.5753M6.04277 16.8104C6.21016 17.0141 6.32418 17.26 6.36841 17.5263M6.04277 16.8104C6.21169 17.0141 6.32608 17.2594 6.36841 17.5263M6.04277 16.8104L6.0401 16.8075C6.02904 16.7941 6.01722 16.7802 6.00578 16.7673M6.36841 17.5263L6.67429 19.3953C6.7279 19.7229 6.94054 20.0025 7.24187 20.1417L8.62572 20.7808C8.91569 20.9147 9.2522 20.9021 9.53129 20.7468L11.2221 19.8058M11.2221 19.8058C11.462 19.6717 11.7296 19.6046 11.9973 19.6042M11.2221 19.8058C11.3171 19.752 11.4166 19.7091 11.5188 19.6769C11.674 19.628 11.8357 19.6039 11.9973 19.6042M11.9973 19.6042C12.1365 19.6045 12.2757 19.6228 12.4114 19.659C12.5376 19.6926 12.6604 19.7416 12.7767 19.8058M11.9973 19.6042C12.2662 19.6039 12.5354 19.6711 12.7767 19.8058M12.7767 19.8058L14.5486 20.7599C14.8289 20.9108 15.1643 20.9193 15.4518 20.7827L16.8291 20.1284C17.1294 19.9857 17.3391 19.7031 17.3887 19.3743L17.6625 17.5602M17.6625 17.5602C17.7048 17.2924 17.8173 17.0446 17.9843 16.8391M17.6625 17.5602C17.7033 17.2918 17.8165 17.0444 17.9843 16.8391M17.9843 16.8391C18.1502 16.6357 18.3702 16.4736 18.6264 16.3734M17.9843 16.8391C18.1498 16.6349 18.3691 16.4724 18.6264 16.3734M18.6264 16.3734L20.4453 15.6643C20.7537 15.5441 20.9827 15.279 21.0567 14.9564L21.3815 13.5422C21.4556 13.2193 21.3651 12.8807 21.1397 12.638L19.8238 11.2206M19.8238 11.2206C19.6346 11.0215 19.5027 10.7837 19.4386 10.531M19.8238 11.2206C19.7349 11.1276 19.6586 11.0259 19.5965 10.9182C19.5256 10.7958 19.4726 10.6655 19.4386 10.531M19.4386 10.531C19.3757 10.28 19.3795 10.0141 19.4592 9.75677L20.0274 7.94523C20.1287 7.6222 20.0597 7.26984 19.844 7.00889L18.9041 5.87175C18.6979 5.62221 18.3835 5.48795 18.0606 5.51148L16.0964 5.6546M16.0964 5.6546C15.8211 5.67394 15.5504 5.62177 15.3094 5.50955M16.0964 5.6546C15.8207 5.67505 15.5504 5.62247 15.3094 5.50955M15.3094 5.50955C15.0669 5.39589 14.8541 5.22111 14.6959 4.99829M15.3094 5.50955C15.0665 5.39631 14.8534 5.22199 14.6959 4.99829M4.54421 10.5753L4.54497 10.5714M15.0635 12.0096C15.0635 13.688 13.6648 15.0486 11.9398 15.0486C10.2147 15.0486 8.81605 13.688 8.81605 12.0096C8.81605 10.3311 10.2147 8.97048 11.9398 8.97048C13.6648 8.97048 15.0635 10.3311 15.0635 12.0096Z" stroke="#1C1B1F"/>
</svg>
