<svg width="24" height="24" viewBox="0 0 24 24" fill="none" xmlns="http://www.w3.org/2000/svg">
<path d="M21.4779 9.08587L20.0738 10.49M21.4779 14.7024L20.0738 13.2983M14.3402 8.78409C15.1203 9.07601 16.6804 10.1279 16.6804 12.0001C16.6804 13.8722 15.1203 14.9253 14.3402 15.5104M7.03088 15.2148L3.52242 15.2158C2.97003 15.2159 2.52214 14.7682 2.52214 14.2158V9.78409C2.52214 9.2318 2.96986 8.78409 3.52214 8.78409H8.31429L12.057 4.92032C12.6822 4.27489 13.7753 4.71749 13.7753 5.61609V18.3836C13.7753 19.2822 12.6821 19.7248 12.0569 19.0792L8.31429 15.2145L7.03088 15.2148ZM7.03088 15.2148C7.04061 16.0673 6.03296 17.9714 4.86236 18.943C4.30638 19.4044 3.57524 19.9961 3.10719 19.528C2.63915 19.06 2.91218 18.5529 3.10719 18.3579C4.51133 17.4218 5.42795 16.0678 5.41822 15.2152" stroke="#1C1B1F" stroke-linecap="round" stroke-linejoin="round"/>
</svg>
