<svg width="32" height="32" viewBox="0 0 32 32" fill="none" xmlns="http://www.w3.org/2000/svg">
<path d="M15.3268 3.6185C15.6022 3.06044 16.398 3.06044 16.6734 3.6185L20.2387 10.8427C20.3481 11.0643 20.5595 11.2179 20.8041 11.2534L28.7764 12.4119C29.3923 12.5013 29.6382 13.2582 29.1926 13.6926L23.4237 19.3158C23.2467 19.4883 23.166 19.7368 23.2078 19.9804L24.5696 27.9205C24.6748 28.5339 24.031 29.0016 23.4802 28.712L16.3495 24.9632C16.1308 24.8482 15.8694 24.8482 15.6507 24.9632L8.52002 28.712C7.96918 29.0016 7.32538 28.5339 7.43059 27.9205L8.79242 19.9804C8.8342 19.7368 8.75345 19.4883 8.57648 19.3158L2.80764 13.6926C2.36201 13.2582 2.60792 12.5013 3.22377 12.4119L11.1961 11.2534C11.4407 11.2179 11.6521 11.0643 11.7615 10.8427L15.3268 3.6185Z" fill="#0000CD" stroke="#0000CD" stroke-linejoin="round"/>
</svg>
