<svg width="32" height="32" viewBox="0 0 32 32" fill="none" xmlns="http://www.w3.org/2000/svg">
<path d="M25.5466 17.3248C25.5466 20.1399 25.5466 24.5333 25.5466 24.5333H26.624V26.6666H5.07733V24.5333H6.15466V17.3248M25.5466 17.3248C26.5834 16.6405 27.314 15.5869 27.5865 14.3831C27.8589 13.1792 27.6524 11.9177 27.0097 10.8608L24.0987 5.86665C24.0042 5.7045 23.8682 5.56985 23.7044 5.47623C23.5406 5.38261 23.3548 5.33332 23.1657 5.33331H8.53665C8.34754 5.33332 8.16177 5.38261 7.998 5.47623C7.83423 5.56985 7.69823 5.7045 7.60368 5.86665L4.68195 10.8768C4.24132 11.601 4 12.4512 4 13.3333C3.99956 14.1228 4.196 14.9002 4.57187 15.5965C4.94774 16.2928 5.49143 16.8865 6.15466 17.3248M25.5466 17.3248C24.7052 17.6289 24.2812 18.0048 23.392 18.1034C22.5356 18.1985 21.9013 18.0976 21.2006 17.846C20.4999 17.5944 19.8672 17.1861 19.352 16.6528C18.8997 17.1211 18.3563 17.4939 17.7545 17.7485C17.1527 18.0032 16.5051 18.1344 15.8507 18.1344C15.1964 18.1347 14.5488 18.0038 13.947 17.7495C13.3453 17.4952 12.8018 17.1229 12.3493 16.6549C11.834 17.188 11.2013 17.5961 10.5006 17.8476C9.79985 18.099 9.04998 18.1869 8.30933 18.1045C7.56868 18.0221 6.96296 17.7495 6.96296 17.7495L6.15466 17.3248" stroke="black" stroke-width="1.5"/>
</svg>
