<svg width="33" height="32" viewBox="0 0 33 32" fill="none" xmlns="http://www.w3.org/2000/svg">
<path d="M26.0466 17.3247C26.0466 20.1398 26.0466 24.5332 26.0466 24.5332H27.124V26.6666H5.57733V24.5332H6.65466V17.3247M26.0466 17.3247C27.0834 16.6404 27.814 15.5868 28.0865 14.383C28.3589 13.1792 28.1524 11.9176 27.5097 10.8607L24.5987 5.86659C24.5042 5.70444 24.3682 5.56978 24.2044 5.47616C24.0406 5.38255 23.8548 5.33326 23.6657 5.33325H9.03665C8.84754 5.33326 8.66177 5.38255 8.498 5.47616C8.33423 5.56978 8.19823 5.70444 8.10368 5.86659L5.18195 10.8767C4.74132 11.601 4.5 12.4511 4.5 13.3333C4.49956 14.1228 4.696 14.9002 5.07187 15.5965C5.44774 16.2928 5.99143 16.8864 6.65466 17.3247M26.0466 17.3247C25.2052 17.6288 24.7812 18.0047 23.892 18.1034C23.0356 18.1984 22.4013 18.0976 21.7006 17.8459C20.9999 17.5943 20.3672 17.186 19.852 16.6527C19.3997 17.1211 18.8563 17.4938 18.2545 17.7485C17.6527 18.0031 17.0051 18.1344 16.3507 18.1343C15.6964 18.1346 15.0488 18.0037 14.447 17.7494C13.8453 17.4952 13.3018 17.1228 12.8493 16.6549C12.334 17.1879 11.7013 17.5961 11.0006 17.8475C10.2999 18.0989 9.54998 18.1869 8.80933 18.1045C8.06868 18.022 7.46296 17.7494 7.46296 17.7494L6.65466 17.3247" stroke="#0000CD" stroke-width="1.5"/>
</svg>
