<svg width="24" height="24" viewBox="0 0 24 24" fill="none" xmlns="http://www.w3.org/2000/svg">
<path d="M19.16 19.4L19.16 12.9936C18.5289 13.2217 18.2109 13.4504 17.544 13.5244C16.9016 13.5957 16.426 13.52 15.9004 13.3313C15.3749 13.1426 14.9004 12.8364 14.514 12.4364C14.1748 12.7877 13.7672 13.0672 13.3159 13.2582C12.8645 13.4492 12.3788 13.5476 11.888 13.5476C11.3972 13.5478 10.9116 13.4496 10.4602 13.2589C10.0089 13.0682 9.60129 12.789 9.26196 12.438C8.87544 12.8378 8.40094 13.1439 7.8754 13.3325C7.34986 13.5211 6.78745 13.587 6.23196 13.5252C5.67648 13.4634 5.22219 13.2589 5.22219 13.2589L4.616 12.9936L4.61597 19.4H19.16Z" fill="black"/>
<path d="M19.16 12.9936C19.16 15.1049 19.16 18.4 19.16 18.4H19.968V20H3.808V18.4H4.616V12.9936M19.16 12.9936C19.9376 12.4804 20.4855 11.6902 20.6899 10.7873C20.8942 9.88443 20.7393 8.9383 20.2572 8.1456L18.074 4.4C18.0031 4.27839 17.9011 4.1774 17.7783 4.10718C17.6555 4.03697 17.5161 4 17.3743 4H6.40248C6.26065 4 6.12132 4.03697 5.9985 4.10718C5.87567 4.1774 5.77367 4.27839 5.70276 4.4L3.51146 8.1576C3.18099 8.7008 3 9.3384 3 10C2.99967 10.5921 3.147 11.1752 3.4289 11.6974C3.71081 12.2196 4.11857 12.6649 4.616 12.9936M19.16 12.9936C18.5289 13.2217 18.2109 13.5036 17.544 13.5776C16.9017 13.6489 16.426 13.5732 15.9004 13.3845C15.3749 13.1958 14.9004 12.8896 14.514 12.4896C14.1748 12.8409 13.7672 13.1204 13.3159 13.3114C12.8646 13.5024 12.3788 13.6008 11.888 13.6008C11.3973 13.601 10.9116 13.5028 10.4603 13.3121C10.0089 13.1214 9.60132 12.8422 9.26199 12.4912C8.87547 12.891 8.40097 13.1971 7.87543 13.3857C7.34989 13.5743 6.78749 13.6402 6.232 13.5784C5.67651 13.5166 5.22222 13.3121 5.22222 13.3121L4.616 12.9936M19.16 12.9936L19.16 19.4H4.61597L4.616 12.9936M19.16 12.9936C18.5289 13.2217 18.2109 13.4504 17.544 13.5244C16.9016 13.5957 16.426 13.52 15.9004 13.3313C15.3749 13.1426 14.9004 12.8364 14.514 12.4364C14.1748 12.7877 13.7672 13.0672 13.3159 13.2582C12.8645 13.4492 12.3788 13.5476 11.888 13.5476C11.3972 13.5478 10.9116 13.4496 10.4602 13.2589C10.0089 13.0682 9.60129 12.789 9.26196 12.438C8.87544 12.8378 8.40094 13.1439 7.8754 13.3325C7.34986 13.5211 6.78745 13.587 6.23196 13.5252C5.67648 13.4634 5.22219 13.2589 5.22219 13.2589L4.616 12.9936" stroke="black" stroke-width="1.5"/>
</svg>
