<svg width="24" height="24" viewBox="0 0 24 24" fill="none" xmlns="http://www.w3.org/2000/svg">
<path d="M5.68098 12.4282V8.61797C5.69248 7.86901 5.85407 7.12964 6.15647 6.44223C6.45888 5.75482 6.89617 5.13288 7.44329 4.61205C7.9904 4.09121 8.63659 3.68172 9.34482 3.40703C10.0531 3.13234 10.8094 2.99786 11.5706 3.01129C11.9454 3.00467 12.5169 2.98959 13.0771 3.01129C13.6372 3.03298 14.2957 3.2676 14.6552 3.40703C15.3634 3.68172 16.0096 4.09121 16.5567 4.61205C17.1038 5.13288 17.5411 5.75482 17.8435 6.44223C18.1459 7.12964 18.3075 7.86901 18.319 8.61797V12.4282M15.3742 19.1891C16.1552 19.1891 16.9043 18.8838 17.4565 18.3404C18.0088 17.797 18.319 17.06 18.319 16.2915V13.877M15.3742 19.1891C15.3742 19.6693 15.1803 20.13 14.8352 20.4696C14.49 20.8092 14.0219 21 13.5337 21H11.3252C10.837 21 10.3689 20.8092 10.0237 20.4696C9.67857 20.13 9.48466 19.6693 9.48466 19.1891C9.48466 18.7088 9.67857 18.2481 10.0237 17.9085C10.3689 17.5689 10.837 17.3781 11.3252 17.3781H13.5337C14.0219 17.3781 14.49 17.5689 14.8352 17.9085C15.1803 18.2481 15.3742 18.7088 15.3742 19.1891ZM3.47239 10.2551H4.94479C5.14004 10.2551 5.32729 10.3314 5.46535 10.4672C5.60342 10.6031 5.68098 10.7873 5.68098 10.9794V14.4806C5.68098 14.6727 5.60342 14.857 5.46535 14.9928C5.32729 15.1287 5.14004 15.205 4.94479 15.205H3.47239C3.08189 15.205 2.70738 15.0523 2.43125 14.7807C2.15513 14.509 2 14.1405 2 13.7562V11.7038C2 11.3196 2.15513 10.9511 2.43125 10.6794C2.70738 10.4077 3.08189 10.2551 3.47239 10.2551ZM20.5276 15.205H19.0552C18.86 15.205 18.6727 15.1287 18.5346 14.9928C18.3966 14.857 18.319 14.6727 18.319 14.4806V10.9794C18.319 10.7873 18.3966 10.6031 18.5346 10.4672C18.6727 10.3314 18.86 10.2551 19.0552 10.2551H20.5276C20.9181 10.2551 21.2926 10.4077 21.5687 10.6794C21.8449 10.9511 22 11.3196 22 11.7038V13.7562C22 14.1405 21.8449 14.509 21.5687 14.7807C21.2926 15.0523 20.9181 15.205 20.5276 15.205Z" stroke="black" stroke-linecap="round" stroke-linejoin="round"/>
</svg>
