<svg width="24" height="24" viewBox="0 0 24 24" fill="none" xmlns="http://www.w3.org/2000/svg">
<path d="M13.4211 20.4C14.4789 20.4 15.4658 20.2 16.3816 19.8C17.2974 19.4 18.0985 18.8522 18.7851 18.1565C19.4722 17.4602 20.0132 16.648 20.4079 15.72C20.8026 14.792 21 13.792 21 12.72C21 10.592 20.2617 8.77984 18.7851 7.28352C17.3091 5.78784 15.5211 5.04 13.4211 5.04C13.1526 5.04 12.8962 5.05184 12.6518 5.07552C12.4067 5.09984 12.1579 5.136 11.9053 5.184C11.8105 5.2 11.7237 5.25984 11.6447 5.36352C11.5658 5.46784 11.5263 5.576 11.5263 5.688C11.5263 5.864 11.5775 5.992 11.6798 6.072C11.7827 6.152 11.9211 6.176 12.0947 6.144C12.3158 6.096 12.5327 6.05984 12.7456 6.03552C12.9591 6.01184 13.1842 6 13.4211 6C15.2526 6 16.8158 6.656 18.1105 7.968C19.4053 9.28 20.0526 10.864 20.0526 12.72C20.0526 14.576 19.4053 16.16 18.1105 17.472C16.8158 18.784 15.2526 19.44 13.4211 19.44C11.5895 19.44 10.0263 18.7878 8.73158 17.4835C7.43684 16.1798 6.78947 14.6 6.78947 12.744C6.78947 12.648 6.79326 12.5562 6.80084 12.4685C6.80905 12.3802 6.82105 12.288 6.83684 12.192C6.83684 12.032 6.79358 11.8998 6.70705 11.7955C6.6199 11.6918 6.50526 11.64 6.36316 11.64C6.23684 11.64 6.13011 11.68 6.04295 11.76C5.95642 11.84 5.90526 11.944 5.88947 12.072C5.87368 12.168 5.86168 12.2758 5.85347 12.3955C5.84589 12.5158 5.84211 12.624 5.84211 12.72C5.84211 14.848 6.58011 16.6602 8.05611 18.1565C9.53274 19.6522 11.3211 20.4 13.4211 20.4ZM6.31579 9.72C6.4579 9.72 6.57221 9.67616 6.65874 9.58848C6.74589 9.50016 6.78947 9.384 6.78947 9.24V6.84H9.1579C9.28421 6.84 9.39474 6.79584 9.48947 6.70752C9.58421 6.61984 9.63158 6.504 9.63158 6.36C9.63158 6.232 9.58421 6.12 9.48947 6.024C9.39474 5.928 9.28421 5.88 9.1579 5.88H6.78947V3.48C6.78947 3.352 6.74211 3.24 6.64737 3.144C6.55263 3.048 6.44211 3 6.31579 3C6.17369 3 6.05905 3.048 5.97189 3.144C5.88537 3.24 5.84211 3.352 5.84211 3.48V5.88H3.47368C3.33158 5.88 3.21695 5.928 3.12979 6.024C3.04326 6.12 3 6.232 3 6.36C3 6.504 3.04326 6.61984 3.12979 6.70752C3.21695 6.79584 3.33158 6.84 3.47368 6.84H5.84211V9.24C5.84211 9.384 5.88947 9.50016 5.98421 9.58848C6.07895 9.67616 6.18947 9.72 6.31579 9.72ZM10.7684 16.08L13.6579 13.152C13.7526 13.072 13.8158 12.984 13.8474 12.888C13.8789 12.792 13.8947 12.696 13.8947 12.6V8.4C13.8947 8.272 13.8474 8.16 13.7526 8.064C13.6579 7.968 13.5474 7.92 13.4211 7.92C13.2789 7.92 13.1643 7.968 13.0772 8.064C12.9906 8.16 12.9474 8.272 12.9474 8.4V12.528L10.1053 15.408C10.0105 15.488 9.96316 15.5958 9.96316 15.7315C9.96316 15.8678 10.0105 15.984 10.1053 16.08C10.2 16.176 10.3105 16.224 10.4368 16.224C10.5632 16.224 10.6737 16.176 10.7684 16.08Z" fill="#1C1B1F"/>
</svg>
