<svg width="24" height="24" viewBox="0 0 24 24" fill="none" xmlns="http://www.w3.org/2000/svg">
<path d="M12.3318 5.88251H11.1318V12.5617L15.4673 14.6222L15.9825 13.5384L12.3318 11.8033V5.88251Z" fill="#333333"/>
<path d="M11.75 2.90125C6.77945 2.90125 2.75 6.9307 2.75 11.9012C2.75 16.8718 6.77945 20.9012 11.75 20.9012C16.7206 20.9012 20.75 16.8718 20.75 11.9012C20.75 6.9307 16.7206 2.90125 11.75 2.90125ZM11.75 19.7012C7.44219 19.7012 3.95 16.2091 3.95 11.9012C3.95 7.59343 7.44219 4.10125 11.75 4.10125C16.0578 4.10125 19.55 7.59343 19.55 11.9012C19.55 16.2091 16.0578 19.7012 11.75 19.7012Z" fill="#333333"/>
</svg>
