<svg width="24" height="24" viewBox="0 0 24 24" fill="none" xmlns="http://www.w3.org/2000/svg">
<path d="M15.7 3.5H17.26C17.8806 3.5 18.4758 3.73341 18.9146 4.14887C19.3535 4.56434 19.6 5.12783 19.6 5.71538V20.4846C19.6 21.0722 19.3535 21.6357 18.9146 22.0511C18.4758 22.4666 17.8806 22.7 17.26 22.7H6.34C5.71939 22.7 5.12421 22.4666 4.68537 22.0511C4.24654 21.6357 4 21.0722 4 20.4846V5.71538C4 5.12783 4.24654 4.56434 4.68537 4.14887C5.12421 3.73341 5.71939 3.5 6.34 3.5H7.9" stroke="#585858" stroke-linejoin="round"/>
<path d="M14.5262 2H9.27384C8.57032 2 8 2.54838 8 3.22484V3.77516C8 4.45162 8.57032 5 9.27384 5H14.5262C15.2297 5 15.8 4.45162 15.8 3.77516V3.22484C15.8 2.54838 15.2297 2 14.5262 2Z" stroke="#585858" stroke-linejoin="round"/>
<path d="M10.6842 8.61958H15.5503M10.6842 12.1642H15.5503M10.6842 15.7088H12.8063M6.4668 8.61958L7.29307 9.23827L8.77046 7.66016M6.4668 12.149L7.29307 12.7677L8.77046 11.1896M6.4668 15.5263L7.29307 16.145L8.77046 14.5669" stroke="#585858" stroke-linecap="round" stroke-linejoin="round"/>
</svg>
